name 900006_13rea_lsw
datacolumns 54
datarows 4
range 0.8659166697999978 0.8916666699999977
cursor 1.0 1.0 0.0
keys m_key
wrap
enforce_loops no
enforce_constraints no
calc_derivatives 0.008583
event_color 1.000000 0.000000 1.000000
endheader

time	calcn_r_tx	calcn_r_ty	calcn_r_tz	calcn_r_r1	calcn_r_r2	calcn_r_r3	calcn_l_tx	calcn_l_ty	calcn_l_tz	calcn_l_r1	calcn_l_r2	calcn_l_r3	pelvis_tz	pelvis_tx	pelvis_ty	pelvis_tilt	pelvis_list	pelvis_rotation	hip_flexion_r	hip_adduction_r	hip_rotation_r	knee_angle_r	ankle_angle_r	subtalar_angle_r	mtp_angle_r	hip_flexion_l	hip_adduction_l	hip_rotation_l	knee_angle_l	ankle_angle_l	subtalar_angle_l	mtp_angle_l	lumbar_extension	lumbar_bending	lumbar_rotation	ground_force_px	ground_force_py	ground_force_pz	ground_force_vx	ground_force_vy	ground_force_vz	ground_force_px	ground_force_py	ground_force_pz	ground_force_vx	ground_force_vy	ground_force_vz	ground_torque_x	ground_torque_y	ground_torque_z	ground_torque_x	ground_torque_y	ground_torque_z	
      0.8659166697999978	      1.9664993273908953	      0.0374729717071270	     -0.2371697327310968	      1.9625174077634329	     -7.0827681409119645	     -3.7773699245537395	      2.2151515367951666	      0.0460628147440885	     -0.3433042775860605	     -1.1947375329352774	     -0.7768696607526240	      5.6328391372795137	     -0.2709147486256869	      2.1910624459367534	      0.8265930979882997	      0.6138162553773703	      0.5247326414259175	     -1.7872599277730294	     -5.2834382707546075	      2.8942076764881151	     -3.6509381679977997	     -7.9533908292148610	      9.0886364280970540	      0.0000000000000000	      0.0000000000000000	     22.0139916942972640	      1.4583680809357755	     -2.8044945938499408	    -22.8704248592444340	      6.0665754552650695	      0.0000000000000000	      0.0000000000000000	    -10.5393958116577940	      0.9622617197129707	      1.0799572307671346	      2.1152773710209796	      0.0000000000000000	     -0.2283881655284885	      5.2874417203888608	    414.4302857299860000	    -14.6370931182109430	      1.6992503071746643	      0.0000000000000000	     -0.2879848284556942	      0.0000000000004274	     -0.0000000000059500	      0.0000000000008383	      0.0000000000000000	      1.5584189638862493	      0.0000000000000000	      0.0000000000000000	      0.0000000000000450	      0.0000000000000000	
      0.8745000031999978	      1.9667786653697952	      0.0378179034091524	     -0.2373939734140452	      1.7901736704804232	     -7.3933756333873983	     -4.1180090623016499	      2.2441301994877763	      0.0439043023576485	     -0.3437822170731847	     -1.2069772352944965	     -0.4943327747495660	      7.8774534643888838	     -0.2708597025847819	      2.2004676768741342	      0.8250252501388089	      0.4698082319210359	      0.5100264999821554	     -1.8217784166848727	     -5.8417578458857449	      2.8779058914863240	     -3.8389676341741823	     -8.0068081545524734	      9.5301363990254195	      0.0000000000000000	      0.0000000000000000	     22.2580494415597200	      1.3461272780558629	     -2.9530796241024149	    -20.0647055700915150	      5.3902498508938930	      0.0000000000000000	      0.0000000000000000	    -10.2197012558485200	      0.8698002552462550	      1.3062028821919558	      2.1183560235549206	      0.0000000000000000	     -0.2285590000404126	      7.3259196447210568	    418.9039997299515200	    -14.6917101359779580	      1.7031195949966849	      0.0000000000000000	     -0.2876726381555125	      0.0000000000008795	      0.0000000000000987	      0.0000000000000050	      0.0000000000000000	      1.5847072653088239	      0.0000000000000000	      0.0000000000000000	      0.0000000000000180	      0.0000000000000000	
      0.8830833365999977	      1.9670887870108416	      0.0382858499990458	     -0.2375769881919716	      1.6109350813818695	     -7.6835935598210465	     -4.5150228397538656	      2.2724392090162149	      0.0424230584431057	     -0.3444485186863249	     -1.1997566948871345	     -0.3224992017562867	     10.1191631918981420	     -0.2708223505158348	      2.2100152495395369	      0.8233793657276247	      0.3242038262783394	      0.4827121827814792	     -1.8661811232895440	     -6.3855679422371709	      2.8679343490079550	     -4.0043662243815472	     -8.1029473438660684	      9.9444425586926304	      0.0000000000000000	      0.0000000000000000	     22.4545300595614710	      1.2368873258127897	     -3.0127507946912511	    -17.2990935900233180	      4.8013160553233591	      0.0000000000000000	      0.0000000000000000	     -9.8633618063493067	      0.7894591800594607	      1.5482240500932016	      2.1208812862255626	      0.0000000000000000	     -0.2286331989333578	      9.9711583641582973	    423.4418612834454100	    -14.8535098638015890	      1.7069780601528257	      0.0000000000000000	     -0.2873688758560057	     -0.0000000000001016	      0.0000000000009100	     -0.0000000000001290	      0.0000000000000000	      1.5719573471654045	      0.0000000000000000	      0.0000000000000000	     -0.0000000000000077	      0.0000000000000000	
      0.8916666699999977	      1.9674223735457581	      0.0388919788015606	     -0.2377161182140791	      1.4214515956844616	     -7.9590132455570979	     -4.9587284933251867	      2.2999188679695193	      0.0415630258216023	     -0.3452679418150444	     -1.1619385084818021	     -0.2775721671749383	     12.3372391551030510	     -0.2708065957592829	      2.2197176770759701	      0.8216770766919708	      0.1847409588193838	      0.4418118848169222	     -1.9252228015232382	     -6.9256652085178514	      2.8624146612910049	     -4.1459750683512020	     -8.2414253180885542	     10.3441963212156070	      0.0000000000000000	      0.0000000000000000	     22.6029849733580090	      1.1272754471075292	     -2.9713962761085964	    -14.6141453903061510	      4.3127452479325692	      0.0000000000000000	      0.0000000000000000	     -9.4775788525852640	      0.7243644797508629	      1.8173778686936020	      2.1230779223765448	      0.0000000000000000	     -0.2286939730342948	     12.9935705247283140	    428.2020430465412900	    -15.0959044307888420	      1.7108407851709215	      0.0000000000000000	     -0.2870978662077532	     -0.0000000000001310	     -0.0000000000000524	      0.0000000000000045	      0.0000000000000000	      1.5403981034386918	      0.0000000000000000	      0.0000000000000000	     -0.0000000000000025	      0.0000000000000000	
